PathFileType	4	(X/Y/Z)	C:\Users\Biomechanik\SynologyDrive\AlexP\Athlete_03\Athlete_3_25_03_31\Static_01\marker_experimental.trc
DataRate	CameraRate	NumFrames	NumMarkers	Units	OrigDataRate	OrigDataStartFrame	OrigNumFrames
200.000000	200.000000	4	74	mm	200.000000	232	372
Frame#	Time	BL			BR			GLAB			RFHD			LFHD			C7			T6			SPINMOL			SPINM2			SPINM3			T12			BELTOL			BELT2			BELT3			SACROL			SACR2			SACR3			LASI			RASI			LPSI			RPSI			LTHOL			LTH2			LTH3			LKNEL			LKNEM			LFIB			LSHAOL			LSHA2			LSHA3			LMALL			LMALM			LHEE			LTOE			LM5			RTHOL			RTH2			RTH3			RKNEL			RKNEM			RFIB			RSHAOL			RSHA2			RSHA3			RMALL			RMALM			RHEE			RTOE			RM5			STRN			XIPH			LACR			LUAOL			LUA2			LUA3			LCUBL			LCUBM			LLAOL			LLA2			LLA3			LWRR			LWRU			RACR			RUAOL			RUA2			RUA3			RCUBL			RCUBM			RLAOL			RLA2			RLA3			RWRR			RWRU			*73			
		X1	Y1	Z1	X2	Y2	Z2	X3	Y3	Z3	X4	Y4	Z4	X5	Y5	Z5	X6	Y6	Z6	X7	Y7	Z7	X8	Y8	Z8	X9	Y9	Z9	X10	Y10	Z10	X11	Y11	Z11	X12	Y12	Z12	X13	Y13	Z13	X14	Y14	Z14	X15	Y15	Z15	X16	Y16	Z16	X17	Y17	Z17	X18	Y18	Z18	X19	Y19	Z19	X20	Y20	Z20	X21	Y21	Z21	X22	Y22	Z22	X23	Y23	Z23	X24	Y24	Z24	X25	Y25	Z25	X26	Y26	Z26	X27	Y27	Z27	X28	Y28	Z28	X29	Y29	Z29	X30	Y30	Z30	X31	Y31	Z31	X32	Y32	Z32	X33	Y33	Z33	X34	Y34	Z34	X35	Y35	Z35	X36	Y36	Z36	X37	Y37	Z37	X38	Y38	Z38	X39	Y39	Z39	X40	Y40	Z40	X41	Y41	Z41	X42	Y42	Z42	X43	Y43	Z43	X44	Y44	Z44	X45	Y45	Z45	X46	Y46	Z46	X47	Y47	Z47	X48	Y48	Z48	X49	Y49	Z49	X50	Y50	Z50	X51	Y51	Z51	X52	Y52	Z52	X53	Y53	Z53	X54	Y54	Z54	X55	Y55	Z55	X56	Y56	Z56	X57	Y57	Z57	X58	Y58	Z58	X59	Y59	Z59	X60	Y60	Z60	X61	Y61	Z61	X62	Y62	Z62	X63	Y63	Z63	X64	Y64	Z64	X65	Y65	Z65	X66	Y66	Z66	X67	Y67	Z67	X68	Y68	Z68	X69	Y69	Z69	X70	Y70	Z70	X71	Y71	Z71	X72	Y72	Z72	X73	Y73	Z73	X74	Y74	Z74	

233	1.16	960.7572631835938	36.18275833129895	-1933.51953125	1063.161865234375	32.94115829467773	86.66322326660156	371.6839599609375	1600.491577148438	-1183.92431640625	321.2318115234375	1628.115844726562	-1121.918212890625	332.2021789550781	1628.403564453125	-1257.717529296875	144.3370208740234	1439.186645507812	-1203.784545898438	nan	nan	nan	102.1456069946289	1230.197021484375	-1236.160400390625	96.25343322753906	1221.027709960938	-1186.822509765625	109.2704772949219	1165.7275390625	-1221.391723632812	125.2740020751953	1102.719116210938	-1218.322875976562	97.33403778076172	1082.022705078125	-1232.748901367188	96.68389892578125	1078.62939453125	-1182.536987304688	89.80016326904297	1019.158752441406	-1212.599975585938	104.8723602294922	959.8522338867189	-1237.083251953125	105.557258605957	957.8090820312501	-1185.692504882812	86.53368377685547	900.5774536132814	-1213.116455078125	335.4390563964844	934.3800659179689	-1329.209350585938	327.4501342773438	925.7654418945314	-1081.764038085938	117.7565536499023	977.3237304687501	-1255.837524414062	118.3154296875	968.2546997070314	-1171.372436523438	192.8670959472656	683.8319091796876	-1398.831298828125	142.9858703613281	630.7918701171876	-1366.306762695312	189.1405792236328	623.9593505859376	-1385.131591796875	236.3269805908203	487.6336669921876	-1381.743408203125	254.4032287597656	461.9273071289063	-1262.702880859375	193.4020843505859	426.0583496093751	-1386.905639648438	159.4129791259766	329.0653076171876	-1402.765747070312	110.3652267456055	267.4447326660157	-1389.789794921875	159.1156463623047	267.2222595214845	-1401.367431640625	142.8089294433594	81.47533416748055	-1381.420654296875	183.6576385498047	89.69748687744149	-1295.617797851562	95.03141784667969	67.5714645385743	-1318.2646484375	309.8978271484375	47.7201461791993	-1348.645874023438	253.0106658935547	31.23085021972665	-1443.646850585938	161.3470001220703	696.6218261718751	-1023.551696777344	211.619140625	637.6981201171876	-1004.147277832031	168.2044067382812	635.3734130859376	-1028.830322265625	201.2149810791016	496.1852416992188	-1025.428100585938	239.1588592529297	464.0889892578126	-1147.156005859375	154.2041015625	432.6100158691407	-1028.751953125	119.7475357055664	347.0697326660157	-1018.52978515625	149.1302947998047	275.6018371582032	-1003.270812988281	107.8111419677734	286.4822082519532	-1028.751831054688	124.942512512207	85.09076690673834	-1041.80224609375	189.0520782470703	95.60321807861335	-1114.53076171875	90.57347106933594	63.78182220458991	-1115.048095703125	292.6891479492188	47.62312698364264	-1043.711791992188	216.4143371582031	39.38695526123053	-964.1690063476562	326.18603515625	1365.808959960938	-1199.416015625	357.77294921875	1220.30029296875	-1201.259521484375	204.4891357421875	1435.849731445312	-1349.830810546875	171.4274597167969	1410.71826171875	-1488.763305664062	160.3594818115234	1385.486083984375	-1549.0927734375	204.1469268798828	1413.7177734375	-1545.806274414062	185.8138122558594	1401.671875	-1653.404174804688	258.948974609375	1311.48583984375	-1651.608642578125	183.9604797363281	1376.1015625	-1744.079223632812	177.4242401123047	1316.744384765625	-1796.887817382812	189.1954650878906	1365.234008789062	-1805.007568359375	202.5440216064453	1356.130615234375	-1909.321533203125	281.6519775390625	1353.454223632813	-1901.647094726562	204.5251159667969	1429.928588867188	-1059.301147460938	161.3844909667969	1411.861572265625	-937.4367065429686	178.8509674072266	1409.380981445312	-873.8239135742186	132.4262542724609	1389.3349609375	-884.0106201171874	154.5541076660156	1391.7685546875	-769.0978393554686	211.9016571044922	1297.020874023438	-769.0916137695311	143.1646728515625	1371.968139648438	-670.1466064453124	158.6979370117188	1414.33984375	-604.2910766601561	142.4299926757812	1366.58447265625	-607.8467407226561	153.9169921875	1378.6845703125	-515.4061279296874	232.3285064697266	1354.872802734375	-503.1222839355468	104.1226272583008	1266.9912109375	-1214.066528320312	
234	1.165	960.7488403320312	36.18924713134778	-1933.514404296875	1063.157470703125	32.9366111755371	86.65492248535156	371.510009765625	1600.61376953125	-1184.13623046875	321.2865905761719	1628.135131835938	-1121.859985351562	332.2189636230469	1628.415283203125	-1257.662841796875	144.3584289550781	1439.188720703125	-1203.744506835938	nan	nan	nan	102.1758804321289	1230.200805664062	-1236.126220703125	96.31224060058594	1221.030517578125	-1186.762817382812	109.2886505126953	1165.732421875	-1221.35498046875	125.2844085693359	1102.739868164062	-1218.292846679688	97.32376861572266	1082.052368164062	-1232.67333984375	96.76615142822266	1078.648559570312	-1182.449584960938	89.79541015625	1019.184448242188	-1212.5615234375	104.8660202026367	959.8716430664064	-1237.020751953125	105.5932922363281	957.8273315429689	-1185.65771484375	86.56143951416016	900.5895996093751	-1213.033203125	335.4323425292969	934.3809814453126	-1329.212158203125	327.4822082519531	925.7498779296876	-1081.767700195312	117.791748046875	977.3270263671876	-1255.789916992188	118.3346099853516	968.2805786132814	-1171.31884765625	192.9483947753906	683.7935180664064	-1398.528564453125	142.9662322998047	630.7918701171876	-1366.267700195312	189.1207275390625	623.9578247070314	-1385.1240234375	236.3090362548828	487.6418762207032	-1381.737182617188	254.3893280029297	461.9238281250001	-1262.708984375	193.3849792480469	426.0579223632813	-1386.901000976562	159.4037780761719	329.0717163085939	-1402.760131835938	110.3640213012695	267.4424743652344	-1389.785034179688	159.1134033203125	267.2184448242189	-1401.367553710938	142.7975921630859	81.47868347167977	-1381.420288085938	183.6585540771484	89.70423889160165	-1295.617431640625	95.02761840820312	67.57252502441415	-1318.267333984375	309.9063720703125	47.7423744201661	-1348.664306640625	253.0385131835938	31.19072151184091	-1443.623413085938	161.3785247802734	696.6163940429689	-1023.526977539062	211.6342620849609	637.6898803710939	-1004.129150390625	168.2364044189453	635.3728637695314	-1028.820556640625	201.2168426513672	496.1852111816407	-1025.418334960938	239.1481781005859	464.0805358886719	-1147.14208984375	154.2043609619141	432.6074829101563	-1028.735107421875	119.751335144043	347.0637512207032	-1018.517700195312	149.1338043212891	275.5874938964844	-1003.267517089844	107.8083267211914	286.4843444824219	-1028.732543945312	124.9233322143555	85.07766723632818	-1041.82470703125	189.0136413574219	95.70652008056648	-1114.548217773438	90.50707244873047	63.85114669799812	-1115.055786132812	292.6802062988281	47.62173843383795	-1043.706176757812	216.410888671875	39.40382003784185	-964.1494140625	326.1959533691406	1365.7939453125	-1199.389404296875	357.814453125	1220.291870117188	-1201.230346679688	204.4812927246094	1435.836059570312	-1349.787475585938	171.4350738525391	1410.711669921875	-1488.709228515625	160.5154571533203	1385.68017578125	-1549.03173828125	204.1634674072266	1413.71484375	-1545.755493164062	185.8011779785156	1401.645141601562	-1653.374145507812	258.9469909667969	1311.494995117188	-1651.5634765625	183.9237518310547	1376.065307617188	-1744.052978515625	177.4316711425781	1316.72021484375	-1796.857543945312	189.1908721923828	1365.22265625	-1804.956787109375	202.5353088378906	1356.121459960938	-1909.283935546875	281.6373596191406	1353.466430664063	-1901.603149414062	204.5300598144531	1429.92822265625	-1059.258911132812	161.3934173583984	1411.863525390625	-937.4127807617186	178.8603973388672	1409.3642578125	-873.8156738281249	132.43701171875	1389.299438476562	-884.0057983398436	154.5565795898438	1391.77392578125	-769.0695800781249	211.9461212158203	1297.045166015625	-769.0256347656249	143.1600646972656	1371.98193359375	-670.1221923828124	158.7832641601562	1414.37744140625	-604.3954467773436	142.4218444824219	1366.607177734375	-607.8225708007811	153.8625640869141	1378.737915039062	-515.3587036132811	232.296142578125	1354.9267578125	-503.0794067382812	104.171760559082	1266.989013671875	-1214.032104492188	
235	1.17	960.7649536132812	36.17882537841809	-1933.523193359375	1063.149658203125	32.92594528198241	86.6461181640625	371.7259216308594	1600.517822265625	-1183.829223632812	321.3121337890625	1628.1708984375	-1121.760375976562	332.2420349121094	1628.424926757812	-1257.60986328125	144.3871917724609	1439.177978515625	-1203.699340820312	nan	nan	nan	102.1984786987305	1230.205688476562	-1236.0732421875	96.3470458984375	1221.025512695312	-1186.736694335938	109.3112106323242	1165.743896484375	-1221.314819335938	125.3298416137695	1102.750122070312	-1218.239501953125	97.35055541992188	1082.075927734375	-1232.639892578125	96.78022003173828	1078.660034179688	-1182.418701171875	89.75239562988281	1019.212036132813	-1212.55712890625	104.9044494628906	959.8778076171876	-1236.989013671875	105.5849533081055	957.8320922851564	-1185.59765625	86.56769561767578	900.6121215820314	-1212.98583984375	335.4225463867188	934.3870239257814	-1329.21484375	327.5404357910156	925.7462158203126	-1081.759887695312	117.7914199829102	977.3519897460939	-1255.767700195312	118.3500442504883	968.2999267578126	-1171.274780273438	192.8336181640625	683.7761230468751	-1398.734130859375	142.9370727539062	630.7930297851564	-1366.25830078125	189.1087646484375	623.9630126953126	-1385.0947265625	236.2707824707031	487.7109069824219	-1381.946899414062	254.3992156982422	461.9322814941407	-1262.700317382812	193.3723297119141	426.0715637207032	-1386.886840820312	159.4054565429688	329.0711975097657	-1402.768188476562	110.3503799438477	267.4444274902344	-1389.791381835938	159.1027374267578	267.2281494140626	-1401.361938476562	142.7984619140625	81.49166870117196	-1381.406372070312	183.6522369384766	89.7094039916993	-1295.607177734375	95.03009033203125	67.57089996337899	-1318.270629882812	309.9063110351562	47.73642349243173	-1348.662963867188	253.0102691650391	31.22226905822763	-1443.622680664062	161.3761291503906	696.6220092773439	-1023.525634765625	211.6511535644531	637.6938476562501	-1004.126586914062	168.2392120361328	635.3715820312501	-1028.813232421875	201.2233276367188	496.1846923828126	-1025.410522460938	239.1560516357422	464.0928344726563	-1147.138916015625	154.2159118652344	432.6004028320313	-1028.73486328125	119.7615280151367	347.0546264648438	-1018.505249023438	149.1344451904297	275.5880432128907	-1003.269592285156	107.8246688842773	286.4791870117188	-1028.726928710938	124.928840637207	85.06748962402349	-1041.81201171875	189.0410919189453	95.60028076171882	-1114.5185546875	90.5343017578125	63.82775878906257	-1115.062133789062	292.6910400390625	47.6273155212403	-1043.694213867188	216.4096221923828	39.40873718261724	-964.1251831054688	326.2092590332031	1365.781982421875	-1199.35888671875	357.8581237792969	1220.28369140625	-1201.21484375	204.4947357177734	1435.84130859375	-1349.74560546875	171.4205780029297	1410.709838867188	-1488.691162109375	160.2593383789062	1385.288818359375	-1549.029052734375	204.1697387695312	1413.69775390625	-1545.730224609375	185.8070678710938	1401.628662109375	-1653.326538085938	258.9706726074219	1311.510620117188	-1651.53369140625	183.9436492919922	1376.074584960938	-1743.994750976562	177.4394683837891	1316.701904296875	-1796.809326171875	189.1947021484375	1365.209594726562	-1804.908081054688	202.5360412597656	1356.112915039063	-1909.253051757812	281.6365966796875	1353.495727539063	-1901.582763671875	204.5386047363281	1429.911743164062	-1059.1982421875	161.3957214355469	1411.85302734375	-937.3898315429686	178.8558654785156	1409.363525390625	-873.7568359374999	132.4367523193359	1389.279296875	-883.9749755859374	154.5596771240234	1391.776611328125	-769.0316162109374	211.9091186523438	1296.974365234375	-769.0695190429686	143.1595458984375	1372.003295898438	-670.0974731445311	158.8593139648438	1414.421508789062	-604.3399047851561	142.4067535400391	1366.631958007812	-607.7846069335936	153.8140563964844	1378.789794921875	-515.3123779296874	232.2593078613281	1354.965454101562	-503.0408020019531	104.2067642211914	1266.99072265625	-1213.997680664062	
236	1.175	960.7581176757812	36.20373153686536	-1933.524536132812	1063.150024414062	32.91886138916015	86.64363861083984	371.7454528808594	1600.54736328125	-1183.787963867188	321.3445434570312	1628.201904296875	-1121.65576171875	332.2662963867188	1628.43701171875	-1257.567016601562	144.4291076660156	1439.176147460938	-1203.657592773438	nan	nan	nan	102.2253570556641	1230.205932617188	-1236.038696289062	96.3819580078125	1221.02197265625	-1186.692749023438	109.3521423339844	1165.742919921875	-1221.270629882812	125.4103698730469	1102.758056640625	-1218.200439453125	97.38458251953125	1082.065795898438	-1232.604736328125	96.83568572998047	1078.681030273438	-1182.370727539062	89.80142974853516	1019.240295410156	-1212.47705078125	104.8904037475586	959.8944702148439	-1236.936401367188	105.5796890258789	957.8599853515626	-1185.516235351562	86.5772705078125	900.6307983398439	-1212.92919921875	335.4202575683594	934.3865356445314	-1329.218383789062	327.5694580078125	925.7039184570314	-1081.76220703125	117.560302734375	977.1920776367189	-1255.856811523438	118.3821182250977	968.3079833984376	-1171.248291015625	192.8139190673828	683.7675170898439	-1398.71728515625	142.9124755859375	630.8239746093751	-1366.206909179688	189.082275390625	623.9791259765626	-1385.0888671875	236.2781219482422	487.6564025878907	-1381.736083984375	254.3863983154297	461.9422302246094	-1262.690795898438	193.3642272949219	426.0703735351563	-1386.893676757812	159.3984985351562	329.0773315429689	-1402.762451171875	110.3452987670898	267.4519348144532	-1389.785766601562	159.1039886474609	267.2364501953126	-1401.361938476562	142.8048706054688	81.48688507080087	-1381.424560546875	183.6500549316406	89.71652984619149	-1295.604370117188	95.02916717529297	67.56690979003915	-1318.265380859375	309.9100952148438	47.72160339355477	-1348.670166015625	253.0062561035156	31.22833442687997	-1443.625610351562	161.4222412109375	696.6351318359376	-1023.491577148438	211.6677551269531	637.6914062500001	-1004.131591796875	168.2742309570312	635.3739624023439	-1028.804809570312	201.2336730957031	496.1808471679688	-1025.408447265625	239.1557006835938	464.0981445312501	-1147.1435546875	154.2302398681641	432.6033020019532	-1028.712646484375	119.757942199707	347.0559692382813	-1018.500854492188	149.1463165283203	275.5817871093751	-1003.263854980469	107.8229370117188	286.4743957519532	-1028.712036132812	124.9263229370117	85.06928253173834	-1041.80419921875	189.0477752685547	95.61924743652351	-1114.5419921875	90.57712554931641	63.76954650878913	-1115.040161132812	292.6893310546875	47.62773895263678	-1043.702392578125	216.4085388183594	39.43785095214849	-964.0968627929688	326.2176513671875	1365.777954101562	-1199.334106445312	357.9053955078125	1220.255493164062	-1201.187133789062	204.4827880859375	1435.848999023438	-1349.721557617188	171.4098510742188	1410.6806640625	-1488.664184570312	160.4533538818359	1385.423461914062	-1548.95703125	203.7891235351562	1413.647338867188	-1545.965209960938	185.7876892089844	1401.633422851562	-1653.269409179688	258.9825744628906	1311.51220703125	-1651.5009765625	183.9992980957031	1376.054809570312	-1743.927368164062	177.4559936523438	1316.7041015625	-1796.77734375	189.18408203125	1365.190551757812	-1804.86328125	202.5164947509766	1356.099243164063	-1909.217163085938	281.6346130371094	1353.52099609375	-1901.55322265625	204.5346069335938	1429.922729492188	-1059.167724609375	161.4049987792969	1411.854370117188	-937.3405761718749	178.8450164794922	1409.33544921875	-873.7195434570311	132.3807373046875	1389.2841796875	-883.8046874999999	154.571533203125	1391.781372070312	-769.0191650390624	211.9322357177734	1296.998046875	-769.0112915039061	143.1550598144531	1372.022094726562	-670.0823364257811	158.8210906982422	1414.429809570312	-604.3455200195311	142.4001617431641	1366.660400390625	-607.7659912109374	153.7499847412109	1378.83203125	-515.2709350585936	232.2342529296875	1354.975463867188	-502.9935913085937	104.2422561645508	1266.993041992188	-1213.962768554688	
